<?xml version="1.0" encoding="UTF-8" standalone="no"?>
<svg
   version="1.1"
   width="352.00003"
   height="352"
   style="clip-rule:evenodd;fill-rule:evenodd;image-rendering:optimizeQuality;shape-rendering:geometricPrecision;text-rendering:geometricPrecision"
   id="svg45"
   xmlns:xlink="http://www.w3.org/1999/xlink"
   xmlns="http://www.w3.org/2000/svg"
   xmlns:svg="http://www.w3.org/2000/svg">
  <defs
     id="defs45">
    <linearGradient
       id="linearGradient264">
      <stop
         style="stop-color:#2a7256;stop-opacity:1;"
         offset="0"
         id="stop265" />
      <stop
         style="stop-color:#2a7256;stop-opacity:0.61960784;"
         offset="0.5868783"
         id="stop267" />
      <stop
         style="stop-color:#2a7256;stop-opacity:0.51372549;"
         offset="1"
         id="stop268" />
      <stop
         style="stop-color:#2a7256;stop-opacity:0;"
         offset="1"
         id="stop266" />
    </linearGradient>
    <linearGradient
       id="linearGradient261">
      <stop
         style="stop-color:#2a7256;stop-opacity:1;"
         offset="0"
         id="stop261" />
      <stop
         style="stop-color:#2a7256;stop-opacity:0.69019608;"
         offset="0.13269338"
         id="stop263" />
      <stop
         style="stop-color:#2a7256;stop-opacity:0.4627451;"
         offset="1"
         id="stop264" />
      <stop
         style="stop-color:#2a7256;stop-opacity:0;"
         offset="1"
         id="stop262" />
    </linearGradient>
    <linearGradient
       id="linearGradient176">
      <stop
         style="stop-color:#24674f;stop-opacity:1;"
         offset="0"
         id="stop177" />
      <stop
         style="stop-color:#24674f;stop-opacity:0.88235294;"
         offset="0.30728805"
         id="stop182" />
      <stop
         style="stop-color:#24674f;stop-opacity:0.78431373;"
         offset="0.5823577"
         id="stop179" />
      <stop
         style="stop-color:#24674f;stop-opacity:0.67843137;"
         offset="0.77080429"
         id="stop180" />
      <stop
         style="stop-color:#24674f;stop-opacity:0.39607843;"
         offset="1"
         id="stop181" />
      <stop
         style="stop-color:#24674f;stop-opacity:0;"
         offset="1"
         id="stop178" />
    </linearGradient>
    <linearGradient
       id="linearGradient158">
      <stop
         style="stop-color:#2a7256;stop-opacity:1;"
         offset="0.00524464"
         id="stop159" />
      <stop
         style="stop-color:#266b52;stop-opacity:0.94117647;"
         offset="0.16265887"
         id="stop169" />
      <stop
         style="stop-color:#24674f;stop-opacity:1;"
         offset="0.3848581"
         id="stop168" />
      <stop
         style="stop-color:#24684f;stop-opacity:0.89019608;"
         offset="0.60815638"
         id="stop171" />
      <stop
         style="stop-color:#256950;stop-opacity:0.81176471;"
         offset="0.84561062"
         id="stop172" />
      <stop
         style="stop-color:#276c52;stop-opacity:0.6745098;"
         offset="1"
         id="stop170" />
      <stop
         style="stop-color:#2a7256;stop-opacity:0.19215686;"
         offset="1"
         id="stop166" />
      <stop
         style="stop-color:#2a7256;stop-opacity:0;"
         offset="1"
         id="stop160" />
    </linearGradient>
    <linearGradient
       id="linearGradient138">
      <stop
         style="stop-color:#265f4f;stop-opacity:1;"
         offset="0.09093184"
         id="stop139" />
      <stop
         style="stop-color:#1f5a49;stop-opacity:0.83529412;"
         offset="0.27249086"
         id="stop173" />
      <stop
         style="stop-color:#1b5645;stop-opacity:0.7372549;"
         offset="0.52612507"
         id="stop176" />
      <stop
         style="stop-color:#185443;stop-opacity:0.64705882;"
         offset="0.72966355"
         id="stop174" />
      <stop
         style="stop-color:#114e3d;stop-opacity:0.4627451;"
         offset="1"
         id="stop175" />
      <stop
         style="stop-color:#004230;stop-opacity:0;"
         offset="1"
         id="stop140" />
    </linearGradient>
    <linearGradient
       id="linearGradient124">
      <stop
         style="stop-color:#23604c;stop-opacity:0.98823529;"
         offset="0.58069289"
         id="stop124" />
      <stop
         style="stop-color:#007e80;stop-opacity:0;"
         offset="1"
         id="stop125" />
    </linearGradient>
    <linearGradient
       xlink:href="#linearGradient138"
       id="linearGradient140"
       x1="-418.83099"
       y1="171.21095"
       x2="13.248965"
       y2="171.21095"
       gradientUnits="userSpaceOnUse"
       gradientTransform="translate(378.79105,4.7890599)" />
    <linearGradient
       xlink:href="#linearGradient158"
       id="linearGradient160"
       x1="-385.5"
       y1="176.5"
       x2="-205.5"
       y2="176.5"
       gradientUnits="userSpaceOnUse"
       spreadMethod="reflect"
       gradientTransform="translate(471.50003,-0.50000012)" />
    <linearGradient
       xlink:href="#linearGradient176"
       id="linearGradient178"
       x1="-445.5"
       y1="176.5"
       x2="-145.5"
       y2="176.5"
       gradientUnits="userSpaceOnUse"
       gradientTransform="translate(471.50003,-0.50000012)" />
    <linearGradient
       xlink:href="#linearGradient261"
       id="linearGradient262"
       x1="-245.94666"
       y1="103.12848"
       x2="-192.04263"
       y2="103.12848"
       gradientUnits="userSpaceOnUse"
       gradientTransform="translate(471.50003,-0.50000012)" />
    <linearGradient
       xlink:href="#linearGradient264"
       id="linearGradient266"
       x1="-246.29626"
       y1="250.09187"
       x2="-192.09035"
       y2="250.09187"
       gradientUnits="userSpaceOnUse"
       gradientTransform="translate(471.50003,-0.50000012)" />
  </defs>
  <path
     d="M 176.00003,-1.1831055e-7 A 176,176 0 0 0 2.9433594e-5,176 176,176 0 0 0 176.00003,352 a 176,176 0 0 0 176,-176 176,176 0 0 0 -176,-176.00000011831053 z M 176.00003,16.785149 A 159.216,159.21568 0 0 1 335.21683,176 159.216,159.21568 0 0 1 176.00003,335.2168 159.216,159.21568 0 0 1 16.783229,176 159.216,159.21568 0 0 1 176.00003,16.785149 Z"
     style="opacity:1;fill:url(#linearGradient140);stroke-width:1.226;stroke-linecap:round;stroke-linejoin:round;stroke-opacity:0.92549"
     id="path150" />
  <path
     d="M 176.00003,27.999999 C 94.261889,27.999999 28.000029,94.261859 28.000029,176 c 0,81.73814 66.26186,148 148.000001,148 81.73814,0 148,-66.26186 148,-148 0,-81.738141 -66.26186,-148.000001 -148,-148.000001 z"
     style="opacity:1;fill:none;stroke:url(#linearGradient178);stroke-width:4;stroke-linecap:round;stroke-linejoin:round"
     id="path151" />
  <path
     d="m 176.00003,85.999999 c -49.70563,0 -90.000001,40.294371 -90.000001,90.000001 0,49.70563 40.294371,90 90.000001,90 49.70563,0 90,-40.29437 90,-90 0,-49.70563 -40.29437,-90.000001 -90,-90.000001 z m 0,40.000001 c 27.61424,0 50,22.38576 50,50 0,27.61424 -22.38576,50 -50,50 -27.61424,0 -50,-22.38576 -50,-50 0,-27.61424 22.38576,-50 50,-50 z"
     style="opacity:1;fill:url(#linearGradient160);fill-opacity:1;stroke-width:0;stroke-linecap:round;stroke-linejoin:round"
     id="path152" />
  <path
     d="m 253.01236,222.5934 c -6.99881,11.54373 -16.52977,21.37109 -27.80859,28.75195 l 26.10937,25.22266 c 0.32556,0.31452 3.83392,-2.72815 7.86719,-6.82227 l 13.51172,-13.71484 c 4.03327,-4.09412 7.01892,-7.64447 6.69336,-7.95899 z"
     style="opacity:1;fill:url(#linearGradient266);stroke-width:0;stroke-linecap:round;stroke-linejoin:round"
     id="path245" />
  <path
     d="m 100.68619,75.433239 c -0.32556,-0.31452 -3.833921,2.72814 -7.867191,6.82226 l -13.51172,13.71485 c -4.03326,4.094121 -7.01891,7.644461 -6.69335,7.958981 l 26.37304,25.47852 c 6.998811,-11.54373 16.529771,-21.37109 27.808601,-28.75196 z"
     style="opacity:1;fill:#2a7256;fill-opacity:1;stroke-width:0;stroke-linecap:round;stroke-linejoin:round"
     id="path244" />
  <path
     d="m 225.55338,100.8805 c 11.24206,7.43105 20.71922,17.30889 27.66601,28.88672 l 26.21289,-25.09375 c 0.327,-0.31302 -2.57628,-3.93673 -6.50976,-8.126951 l -13.17578,-14.03711 c -3.93348,-4.19022 -7.36441,-7.31107 -7.69141,-6.99805 z"
     style="opacity:1;fill:url(#linearGradient262);stroke-width:0;stroke-linecap:round;stroke-linejoin:round"
     id="path247" />
  <path
     d="M 126.44596,251.12074 C 115.20437,243.69 105.72666,233.81319 98.779939,222.23598 l -26.21289,25.09179 c -0.327,0.31302 2.57629,3.93869 6.50977,8.12891 l 13.17578,14.03516 c 3.93347,4.19022 7.36441,7.31302 7.6914,7 z"
     style="opacity:1;fill:#2a7256;fill-opacity:1;stroke-width:0;stroke-linecap:round;stroke-linejoin:round"
     id="path246" />
</svg>
